<?xml version="1.0" standalone="no"?>
<!DOCTYPE svg PUBLIC "-//W3C//DTD SVG 20010904//EN"
 "http://www.w3.org/TR/2001/REC-SVG-20010904/DTD/svg10.dtd">
<svg version="1.0" xmlns="http://www.w3.org/2000/svg"
 width="16.000000pt" height="16.000000pt" viewBox="0 0 16.000000 16.000000"
 preserveAspectRatio="xMidYMid meet">
<metadata>
Created by potrace 1.11, written by Peter Selinger 2001-2013
</metadata>
<g transform="translate(0.000000,16.000000) scale(0.001951,-0.001951)"
fill="#000000" stroke="none">
<path d="M0 4100 l0 -4100 4100 0 4100 0 0 4100 0 4100 -4100 0 -4100 0 0
-4100z m2823 2368 c4 -35 61 -760 127 -1613 67 -852 124 -1561 127 -1575 4
-14 12 58 19 160 41 592 109 1278 205 2075 38 317 112 900 125 978 l6 37 659
0 c520 0 659 -3 659 -12 0 -7 7 -78 15 -158 27 -276 115 -1359 185 -2290 39
-514 72 -939 74 -945 1 -5 6 37 10 95 75 1108 163 1993 301 3010 19 140 37
265 40 278 l5 22 616 0 615 0 -5 -32 c-3 -18 -130 -1108 -281 -2423 -152
-1314 -278 -2396 -280 -2402 -3 -10 -171 -13 -793 -13 l-788 0 -23 117 c-115
610 -265 1610 -337 2241 -10 83 -20 152 -24 152 -3 0 -12 -46 -19 -102 -24
-200 -122 -912 -227 -1656 l-107 -752 -784 0 c-618 0 -785 3 -788 13 -2 6
-128 1081 -280 2387 -151 1306 -278 2396 -282 2423 l-6 47 615 0 615 0 6 -62z"/>
</g>
</svg>
